<svg width="760" height="860" viewBox="0 0 760 860" fill="none" xmlns="http://www.w3.org/2000/svg">
  <rect width="760" height="860" rx="36" fill="#E2E8F0"/>
  <rect x="84" y="48" width="592" height="764" rx="30" fill="#F8FAFC" stroke="#CBD5E1"/>
  <rect x="84" y="48" width="592" height="84" rx="30" fill="#0F172A"/>
  <text x="132" y="101" fill="#F8FAFC" font-family="Arial, sans-serif" font-size="26" font-weight="700">Quick Check</text>
  <rect x="124" y="168" width="512" height="96" rx="24" fill="#FFFFFF" stroke="#CBD5E1"/>
  <text x="152" y="208" fill="#475569" font-family="Arial, sans-serif" font-size="18">Selected text</text>
  <text x="152" y="238" fill="#0F172A" font-family="Arial, sans-serif" font-size="21" font-weight="700">“Finish setup now or your account will close.”</text>
  <rect x="124" y="290" width="512" height="124" rx="24" fill="#0F172A"/>
  <text x="156" y="334" fill="#94A3B8" font-family="Arial, sans-serif" font-size="18">Risk snapshot</text>
  <text x="156" y="390" fill="#F8FAFC" font-family="Georgia, serif" font-size="58" font-weight="700">74 / 100</text>
  <rect x="468" y="320" width="128" height="42" rx="21" fill="#7C2D12"/>
  <text x="506" y="347" fill="#FED7AA" font-family="Arial, sans-serif" font-size="17" font-weight="700">Warning</text>
  <rect x="124" y="440" width="246" height="136" rx="24" fill="#DBEAFE"/>
  <text x="152" y="486" fill="#1D4ED8" font-family="Arial, sans-serif" font-size="20" font-weight="700">Signal</text>
  <text x="152" y="528" fill="#0F172A" font-family="Arial, sans-serif" font-size="24" font-weight="700">Urgency framing</text>
  <text x="152" y="560" fill="#334155" font-family="Arial, sans-serif" font-size="17">Threatens loss if you do not act now.</text>
  <rect x="390" y="440" width="246" height="136" rx="24" fill="#ECFCCB"/>
  <text x="418" y="486" fill="#3F6212" font-family="Arial, sans-serif" font-size="20" font-weight="700">Provider</text>
  <text x="418" y="528" fill="#0F172A" font-family="Arial, sans-serif" font-size="24" font-weight="700">Gemini fallback</text>
  <text x="418" y="560" fill="#334155" font-family="Arial, sans-serif" font-size="17">Codex stays hidden on Windows.</text>
  <rect x="124" y="602" width="512" height="164" rx="24" fill="#FFFFFF" stroke="#CBD5E1"/>
  <text x="156" y="646" fill="#0F172A" font-family="Arial, sans-serif" font-size="22" font-weight="700">Recommended next step</text>
  <text x="156" y="690" fill="#475569" font-family="Arial, sans-serif" font-size="19">Check the real hostname before clicking the button.</text>
  <rect x="156" y="716" width="132" height="36" rx="18" fill="#F97316" fill-opacity="0.18" stroke="#FB923C"/>
  <text x="192" y="739" fill="#9A3412" font-family="Arial, sans-serif" font-size="16" font-weight="700">Masked domain</text>
  <rect x="300" y="716" width="144" height="36" rx="18" fill="#1D4ED8" fill-opacity="0.18" stroke="#60A5FA"/>
  <text x="340" y="739" fill="#1E3A8A" font-family="Arial, sans-serif" font-size="16" font-weight="700">Copied text</text>
</svg>
